<svg width="20" height="21" viewBox="0 0 20 21" fill="none" xmlns="http://www.w3.org/2000/svg">
<path d="M14.9996 0H4.99987C2.25019 0 0 2.3627 0 5.24987V15.7501C0 18.6365 2.25019 21 4.99987 21H14.9996C17.7493 21 19.9995 18.6365 19.9995 15.7501V5.24987C19.9995 2.3627 17.7493 0 14.9996 0ZM18.3328 15.7501C18.3328 17.6795 16.8381 19.25 14.9996 19.25H4.99987C3.16217 19.25 1.66671 17.6795 1.66671 15.7501V5.24987C1.66671 3.32003 3.16217 1.75004 4.99987 1.75004H14.9996C16.8381 1.75004 18.3328 3.32003 18.3328 5.24987V15.7501Z" fill="black"/>
<path d="M15.1872 6.12445C15.9121 6.12445 16.4997 5.53684 16.4997 4.81198C16.4997 4.08712 15.9121 3.49951 15.1872 3.49951C14.4624 3.49951 13.8748 4.08712 13.8748 4.81198C13.8748 5.53684 14.4624 6.12445 15.1872 6.12445Z" fill="black"/>
<path d="M9.24889 5.25C6.34885 5.25 3.99902 7.60009 3.99902 10.4999C3.99902 13.3986 6.34885 15.7503 9.24889 15.7503C12.1481 15.7503 14.4988 13.3986 14.4988 10.4999C14.4988 7.60009 12.1481 5.25 9.24889 5.25ZM9.24889 14.0002C7.31613 14.0002 5.74906 12.4331 5.74906 10.4999C5.74906 8.5666 7.31613 7.00004 9.24889 7.00004C11.1817 7.00004 12.7487 8.5666 12.7487 10.4999C12.7487 12.4331 11.1817 14.0002 9.24889 14.0002Z" fill="black"/>
</svg>
