<svg width="21" height="158" viewBox="0 0 21 158" fill="none" xmlns="http://www.w3.org/2000/svg">
<path d="M8.11902 11.726C8.04102 11.726 6.32502 11.726 5.54502 11.726C5.12902 11.726 4.99902 11.57 4.99902 11.18C4.99902 10.14 4.99902 9.074 4.99902 8.034C4.99902 7.618 5.15502 7.488 5.54502 7.488H8.11902C8.11902 7.41 8.11902 5.902 8.11902 5.2C8.11902 4.16 8.30102 3.172 8.82102 2.262C9.36702 1.326 10.147 0.702 11.135 0.338C11.785 0.104 12.435 0 13.137 0H15.685C16.049 0 16.205 0.156 16.205 0.52V3.484C16.205 3.848 16.049 4.004 15.685 4.004C14.983 4.004 14.281 4.004 13.579 4.03C12.877 4.03 12.513 4.368 12.513 5.096C12.487 5.876 12.513 6.63 12.513 7.436H15.529C15.945 7.436 16.101 7.592 16.101 8.008V11.154C16.101 11.57 15.971 11.7 15.529 11.7C14.593 11.7 12.591 11.7 12.513 11.7V20.176C12.513 20.618 12.383 20.774 11.915 20.774C10.823 20.774 9.75702 20.774 8.66502 20.774C8.27502 20.774 8.11902 20.618 8.11902 20.228C8.11902 17.498 8.11902 11.804 8.11902 11.726Z" fill="black"/>
<path d="M20.4606 98.8202C19.7569 99.1288 19.007 99.3335 18.2253 99.4328C19.0295 98.9526 19.6433 98.1981 19.9319 97.2886C19.1821 97.7356 18.3542 98.0514 17.4719 98.2276C16.7599 97.4695 15.7452 97 14.6382 97C12.4904 97 10.7613 98.7433 10.7613 100.88C10.7613 101.188 10.7873 101.484 10.8512 101.765C7.62598 101.608 4.77214 100.062 2.85499 97.7073C2.52029 98.288 2.32397 98.9526 2.32397 99.6682C2.32397 101.012 3.01584 102.203 4.04715 102.892C3.42387 102.88 2.81242 102.699 2.2944 102.414C2.2944 102.426 2.2944 102.442 2.2944 102.457C2.2944 104.342 3.63912 105.908 5.40251 106.269C5.08674 106.355 4.74257 106.396 4.3854 106.396C4.13703 106.396 3.8863 106.382 3.65095 106.33C4.15359 107.867 5.57992 108.996 7.2759 109.033C5.95601 110.065 4.28014 110.687 2.46589 110.687C2.14774 110.687 1.84261 110.673 1.53748 110.634C3.25593 111.742 5.29252 112.375 7.48878 112.375C14.6275 112.375 18.5304 106.462 18.5304 101.336C18.5304 101.164 18.5245 100.999 18.5162 100.834C19.2861 100.288 19.9331 99.6055 20.4606 98.8202Z" fill="black"/>
<path d="M15.7496 47H5.24987C2.3627 47 0 49.3627 0 52.2499V62.7501C0 65.6365 2.3627 68 5.24987 68H15.7496C18.6368 68 20.9995 65.6365 20.9995 62.7501V52.2499C20.9995 49.3627 18.6368 47 15.7496 47ZM19.2494 62.7501C19.2494 64.6795 17.68 66.25 15.7496 66.25H5.24987C3.32029 66.25 1.75004 64.6795 1.75004 62.7501V52.2499C1.75004 50.32 3.32029 48.75 5.24987 48.75H15.7496C17.68 48.75 19.2494 50.32 19.2494 52.2499V62.7501Z" fill="black"/>
<path d="M16.1872 53.1244C16.9121 53.1244 17.4997 52.5368 17.4997 51.812C17.4997 51.0871 16.9121 50.4995 16.1872 50.4995C15.4624 50.4995 14.8748 51.0871 14.8748 51.812C14.8748 52.5368 15.4624 53.1244 16.1872 53.1244Z" fill="black"/>
<path d="M10.2489 52.25C7.34885 52.25 4.99902 54.6001 4.99902 57.4999C4.99902 60.3986 7.34885 62.7503 10.2489 62.7503C13.1481 62.7503 15.4988 60.3986 15.4988 57.4999C15.4988 54.6001 13.1481 52.25 10.2489 52.25ZM10.2489 61.0002C8.31613 61.0002 6.74906 59.4331 6.74906 57.4999C6.74906 55.5666 8.31613 54 10.2489 54C12.1817 54 13.7487 55.5666 13.7487 57.4999C13.7487 59.4331 12.1817 61.0002 10.2489 61.0002Z" fill="black"/>
<g clip-path="url(#clip0_2_19)">
<path d="M18.099 140H2.89902C1.85402 140 0.999023 140.81 0.999023 141.8V156.2C0.999023 157.19 1.85402 158 2.89902 158H18.099C19.144 158 19.999 157.19 19.999 156.2V141.8C19.999 140.81 19.144 140 18.099 140ZM6.69902 155.3H3.84902V147.2H6.69902V155.3ZM5.27402 145.67C4.32402 145.67 3.56402 144.95 3.56402 144.05C3.56402 143.15 4.32402 142.43 5.27402 142.43C6.22402 142.43 6.98402 143.15 6.98402 144.05C6.98402 144.95 6.22402 145.67 5.27402 145.67ZM17.149 155.3H14.299V150.53C14.299 149.81 13.634 149.18 12.874 149.18C12.114 149.18 11.449 149.81 11.449 150.53V155.3H8.59902V147.2H11.449V148.28C11.924 147.56 12.969 147.02 13.824 147.02C15.629 147.02 17.149 148.46 17.149 150.17V155.3Z" fill="black"/>
</g>
<defs>
<clipPath id="clip0_2_19">
<rect width="19" height="18" fill="white" transform="translate(0.999023 140)"/>
</clipPath>
</defs>
</svg>
